<?xml version="1.0" encoding="utf-8"?>
<!-- Generator: Adobe Illustrator 23.0.6, SVG Export Plug-In . SVG Version: 6.00 Build 0)  -->
<svg version="1.1" id="Layer_1" xmlns="http://www.w3.org/2000/svg" xmlns:xlink="http://www.w3.org/1999/xlink" x="0px" y="0px"
	 viewBox="0 0 620 200" style="enable-background:new 0 0 620 200;" xml:space="preserve">
<style type="text/css">
	.st0{fill:#E25858;}
	.st1{fill:#FFFFFF;}
</style>
<g>
	<g>
		<g>
			<path class="st1" d="M39.4,194c-8.6,0-17.1-3.3-23.6-9.8c-13-13-13-34.2,0-47.3l53-53v0L99,53.8c7.8-7.8,7.8-20.5,0-28.4
				c-7.8-7.8-20.5-7.8-28.4,0l-8.5,8.5l-8.5-8.5c-7.8-7.8-20.5-7.8-28.4,0c-7.8,7.8-7.8,20.5,0,28.4L45.4,74L36,83.4L15.8,63.2
				c-13-13-13-34.2,0-47.3C28.5,3.3,49,3,62.1,15.1C75.2,3,95.7,3.3,108.4,16c13,13,13,34.2,0,47.3l-53,53v0l-30.2,30.2
				c-7.8,7.8-7.8,20.5,0,28.4c7.8,7.8,20.5,7.8,28.4,0l8.5-8.5l8.5,8.5c7.8,7.8,20.5,7.8,28.4,0c7.8-7.8,7.8-20.5,0-28.4l-20.2-20.2
				l9.5-9.5l20.2,20.2c13,13,13,34.2,0,47.3c-12.7,12.7-33.2,13-46.3,0.9C55.7,191,47.6,194,39.4,194z"/>
		</g>
	</g>
	<g>
		<path class="st1" d="M191.1,41.6V54h18.4v10.3h-18.4v26.9h-11.5V31.3h35.9v10.3H191.1z"/>
		<path class="st1" d="M246.7,59.6c-0.8-0.3-2.4-0.4-4-0.4c-4.9,0-8.7,3.5-10.1,6v26.1h-11.1V49.7h10.7v4.2c2.5-3.1,7-5,12.1-5
			c1.6,0,2.6,0.2,3.8,0.3L246.7,59.6z"/>
		<path class="st1" d="M262.1,27.9c4,0,7.3,3.1,7.3,7.1s-3.3,7.1-7.3,7.1c-4,0-7.3-3.1-7.3-7.1S258.1,27.9,262.1,27.9z M267.6,91.2
			h-11.1V49.7h11.1V91.2z"/>
		<path class="st1" d="M297.8,75l11.4-25.3h11.5l-19.1,41.5H294l-19.1-41.5h11.5L297.8,75z"/>
		<path class="st1" d="M333.6,27.9c4,0,7.3,3.1,7.3,7.1s-3.3,7.1-7.3,7.1s-7.3-3.1-7.3-7.1S329.6,27.9,333.6,27.9z M339.2,91.2H328
			V49.7h11.1V91.2z"/>
		<path class="st1" d="M363.1,91.2H352V30.5h11.1V91.2z"/>
		<path class="st1" d="M387.1,91.2h-11.1V30.5h11.1V91.2z"/>
		<path class="st1" d="M405.4,27.9c4,0,7.3,3.1,7.3,7.1s-3.3,7.1-7.3,7.1c-4,0-7.3-3.1-7.3-7.1S401.4,27.9,405.4,27.9z M411,91.2
			h-11.1V49.7H411V91.2z"/>
		<path class="st1" d="M463.6,88.9c0,7.4-1.3,11.9-3.8,15.4c-3.8,5.2-10.4,8.3-18.4,8.3c-8.1,0-15.8-3.8-19.9-8.6l7-7.3
			c2.2,2.4,6.1,6,12.9,6c3.6,0,6.6-1.1,8.5-3.3c1.7-1.9,2.6-4.4,2.6-9.8v-1.4c-3.3,2.6-6.9,3.8-11.1,3.8c-6.2,0-12.1-2.7-15.7-7
			c-3.2-3.8-5.2-8.9-5.2-14.5c0-12.2,9.1-21.6,20.4-21.6c4.7,0,8.9,1.5,12.1,4.2v-3.3h10.7V88.9z M452.5,64.3
			c-2.3-3.1-6-5.1-10.3-5.1c-6.5,0-10.7,5.4-10.7,11.4c0,6.5,4.7,11.3,10.9,11.3c4.2,0,7.9-2.1,10-5.1V64.3z"/>
		<path class="st1" d="M487.6,91.2h-11.1V30.5h11.1v22.2c3.1-2.4,7-3.8,11.3-3.8c5.7,0,10.9,2.6,14.4,6.7c2.7,3.3,4.3,7.4,4.3,14.5
			v21.1h-11.1v-22c0-4.1-0.9-6.2-2.5-7.8c-1.5-1.5-3.7-2.3-6.2-2.3c-4.7,0-8.6,3-10.1,5.1V91.2z"/>
		<path class="st1" d="M564.8,84.6c-4,4.8-10.6,7.4-17,7.4c-12.4,0-21.7-8.6-21.7-21.6c0-11.5,7.9-21.6,20.2-21.6
			c11.5,0,19.6,9.7,19.6,21.2c0,1.1-0.1,2.2-0.3,3.2h-28.7c0.6,5.8,5.3,9.8,11.2,9.8c4.7,0,8.5-2.7,10.4-4.8L564.8,84.6z
			 M554.4,65.1c-0.3-3.7-3.7-7.3-8.2-7.3c-4.6,0-8.4,3.5-8.9,7.3H554.4z"/>
		<path class="st1" d="M605.6,91.2c-1.5,0.5-4.8,0.9-6.9,0.9c-6.7,0-11.5-2.2-14.4-6c-2.1-2.8-3.1-6.5-3.1-12.4V59.1h-11.5v-9.4
			h11.5V38.2h11.1v11.5H606v9.4h-13.7V75c0,2.6,0.4,4.1,1.4,5.2c1.1,1.3,2.9,2.1,5.6,2.1c1.6,0,3.8-0.3,4.5-0.4L605.6,91.2z"/>
		<path class="st1" d="M179.5,112.4h8.1l33.4,39v-39h11.5v59.9h-8.1l-33.4-39v39h-11.5V112.4z"/>
		<path class="st1" d="M264.5,130c12.6,0,22.1,9.7,22.1,21.6s-9.5,21.6-22.1,21.6c-12.6,0-22.1-9.6-22.1-21.6S251.9,130,264.5,130z
			 M264.5,162.9c6.5,0,10.9-5,10.9-11.3c0-6.2-4.4-11.4-10.9-11.4s-10.9,5.1-10.9,11.4C253.5,157.8,258,162.9,264.5,162.9z"/>
		<path class="st1" d="M321.2,140.6c-0.8-0.3-2.4-0.4-4-0.4c-4.9,0-8.7,3.5-10.1,6v26.1H296v-41.5h10.7v4.2c2.5-3.1,7-5,12.1-5
			c1.6,0,2.6,0.2,3.8,0.3L321.2,140.6z"/>
		<path class="st1" d="M369.5,170c0,7.4-1.3,11.9-3.8,15.4c-3.8,5.2-10.4,8.3-18.4,8.3c-8.1,0-15.8-3.8-19.9-8.6l7-7.3
			c2.2,2.4,6.1,6,12.9,6c3.6,0,6.6-1.1,8.5-3.3c1.7-1.9,2.6-4.4,2.6-9.8v-1.4c-3.3,2.6-6.9,3.8-11.1,3.8c-6.2,0-12.1-2.7-15.7-7
			c-3.2-3.8-5.2-8.9-5.2-14.5c0-12.2,9.1-21.6,20.4-21.6c4.7,0,8.9,1.5,12.1,4.2v-3.3h10.7V170z M358.4,145.4
			c-2.3-3.1-6-5.1-10.3-5.1c-6.5,0-10.7,5.4-10.7,11.4c0,6.5,4.7,11.3,10.9,11.3c4.2,0,7.9-2.1,10-5.1V145.4z"/>
		<path class="st1" d="M417.7,165.7c-4,4.8-10.6,7.4-17,7.4c-12.4,0-21.7-8.6-21.7-21.6c0-11.5,7.9-21.6,20.2-21.6
			c11.5,0,19.6,9.7,19.6,21.2c0,1.1-0.1,2.2-0.3,3.2h-28.7c0.6,5.8,5.3,9.8,11.2,9.8c4.7,0,8.5-2.7,10.4-4.8L417.7,165.7z
			 M407.3,146.2c-0.3-3.7-3.7-7.3-8.2-7.3c-4.6,0-8.4,3.5-8.9,7.3H407.3z"/>
	</g>
</g>
<g>
	<g>
		<g>
			<path class="st1" d="M39.4,194c-8.6,0-17.1-3.3-23.6-9.8c-13-13-13-34.2,0-47.3l53-53v0L99,53.8c7.8-7.8,7.8-20.5,0-28.4
				c-7.8-7.8-20.5-7.8-28.4,0l-8.5,8.5l-8.5-8.5c-7.8-7.8-20.5-7.8-28.4,0c-7.8,7.8-7.8,20.5,0,28.4L45.4,74L36,83.4L15.8,63.2
				c-13-13-13-34.2,0-47.3C28.5,3.3,49,3,62.1,15.1C75.2,3,95.7,3.3,108.4,16c13,13,13,34.2,0,47.3l-53,53v0l-30.2,30.2
				c-7.8,7.8-7.8,20.5,0,28.4c7.8,7.8,20.5,7.8,28.4,0l8.5-8.5l8.5,8.5c7.8,7.8,20.5,7.8,28.4,0c7.8-7.8,7.8-20.5,0-28.4l-20.2-20.2
				l9.5-9.5l20.2,20.2c13,13,13,34.2,0,47.3c-12.7,12.7-33.2,13-46.3,0.9C55.7,191,47.6,194,39.4,194z"/>
		</g>
	</g>
	<g>
		<path class="st1" d="M191.1,41.6V54h18.4v10.3h-18.4v26.9h-11.5V31.3h35.9v10.3H191.1z"/>
		<path class="st1" d="M246.7,59.6c-0.8-0.3-2.4-0.4-4-0.4c-4.9,0-8.7,3.5-10.1,6v26.1h-11.1V49.7h10.7v4.2c2.5-3.1,7-5,12.1-5
			c1.6,0,2.6,0.2,3.8,0.3L246.7,59.6z"/>
		<path class="st1" d="M262.1,27.9c4,0,7.3,3.1,7.3,7.1s-3.3,7.1-7.3,7.1c-4,0-7.3-3.1-7.3-7.1S258.1,27.9,262.1,27.9z M267.6,91.2
			h-11.1V49.7h11.1V91.2z"/>
		<path class="st1" d="M297.8,75l11.4-25.3h11.5l-19.1,41.5H294l-19.1-41.5h11.5L297.8,75z"/>
		<path class="st1" d="M333.6,27.9c4,0,7.3,3.1,7.3,7.1s-3.3,7.1-7.3,7.1s-7.3-3.1-7.3-7.1S329.6,27.9,333.6,27.9z M339.2,91.2H328
			V49.7h11.1V91.2z"/>
		<path class="st1" d="M363.1,91.2H352V30.5h11.1V91.2z"/>
		<path class="st1" d="M387.1,91.2h-11.1V30.5h11.1V91.2z"/>
		<path class="st1" d="M405.4,27.9c4,0,7.3,3.1,7.3,7.1s-3.3,7.1-7.3,7.1c-4,0-7.3-3.1-7.3-7.1S401.4,27.9,405.4,27.9z M411,91.2
			h-11.1V49.7H411V91.2z"/>
		<path class="st1" d="M463.6,88.9c0,7.4-1.3,11.9-3.8,15.4c-3.8,5.2-10.4,8.3-18.4,8.3c-8.1,0-15.8-3.8-19.9-8.6l7-7.3
			c2.2,2.4,6.1,6,12.9,6c3.6,0,6.6-1.1,8.5-3.3c1.7-1.9,2.6-4.4,2.6-9.8v-1.4c-3.3,2.6-6.9,3.8-11.1,3.8c-6.2,0-12.1-2.7-15.7-7
			c-3.2-3.8-5.2-8.9-5.2-14.5c0-12.2,9.1-21.6,20.4-21.6c4.7,0,8.9,1.5,12.1,4.2v-3.3h10.7V88.9z M452.5,64.3
			c-2.3-3.1-6-5.1-10.3-5.1c-6.5,0-10.7,5.4-10.7,11.4c0,6.5,4.7,11.3,10.9,11.3c4.2,0,7.9-2.1,10-5.1V64.3z"/>
		<path class="st1" d="M487.6,91.2h-11.1V30.5h11.1v22.2c3.1-2.4,7-3.8,11.3-3.8c5.7,0,10.9,2.6,14.4,6.7c2.7,3.3,4.3,7.4,4.3,14.5
			v21.1h-11.1v-22c0-4.1-0.9-6.2-2.5-7.8c-1.5-1.5-3.7-2.3-6.2-2.3c-4.7,0-8.6,3-10.1,5.1V91.2z"/>
		<path class="st1" d="M564.8,84.6c-4,4.8-10.6,7.4-17,7.4c-12.4,0-21.7-8.6-21.7-21.6c0-11.5,7.9-21.6,20.2-21.6
			c11.5,0,19.6,9.7,19.6,21.2c0,1.1-0.1,2.2-0.3,3.2h-28.7c0.6,5.8,5.3,9.8,11.2,9.8c4.7,0,8.5-2.7,10.4-4.8L564.8,84.6z
			 M554.4,65.1c-0.3-3.7-3.7-7.3-8.2-7.3c-4.6,0-8.4,3.5-8.9,7.3H554.4z"/>
		<path class="st1" d="M605.6,91.2c-1.5,0.5-4.8,0.9-6.9,0.9c-6.7,0-11.5-2.2-14.4-6c-2.1-2.8-3.1-6.5-3.1-12.4V59.1h-11.5v-9.4
			h11.5V38.2h11.1v11.5H606v9.4h-13.7V75c0,2.6,0.4,4.1,1.4,5.2c1.1,1.3,2.9,2.1,5.6,2.1c1.6,0,3.8-0.3,4.5-0.4L605.6,91.2z"/>
		<path class="st1" d="M179.5,112.4h8.1l33.4,39v-39h11.5v59.9h-8.1l-33.4-39v39h-11.5V112.4z"/>
		<path class="st1" d="M264.5,130c12.6,0,22.1,9.7,22.1,21.6s-9.5,21.6-22.1,21.6c-12.6,0-22.1-9.6-22.1-21.6S251.9,130,264.5,130z
			 M264.5,162.9c6.5,0,10.9-5,10.9-11.3c0-6.2-4.4-11.4-10.9-11.4s-10.9,5.1-10.9,11.4C253.5,157.8,258,162.9,264.5,162.9z"/>
		<path class="st1" d="M321.2,140.6c-0.8-0.3-2.4-0.4-4-0.4c-4.9,0-8.7,3.5-10.1,6v26.1H296v-41.5h10.7v4.2c2.5-3.1,7-5,12.1-5
			c1.6,0,2.6,0.2,3.8,0.3L321.2,140.6z"/>
		<path class="st1" d="M369.5,170c0,7.4-1.3,11.9-3.8,15.4c-3.8,5.2-10.4,8.3-18.4,8.3c-8.1,0-15.8-3.8-19.9-8.6l7-7.3
			c2.2,2.4,6.1,6,12.9,6c3.6,0,6.6-1.1,8.5-3.3c1.7-1.9,2.6-4.4,2.6-9.8v-1.4c-3.3,2.6-6.9,3.8-11.1,3.8c-6.2,0-12.1-2.7-15.7-7
			c-3.2-3.8-5.2-8.9-5.2-14.5c0-12.2,9.1-21.6,20.4-21.6c4.7,0,8.9,1.5,12.1,4.2v-3.3h10.7V170z M358.4,145.4
			c-2.3-3.1-6-5.1-10.3-5.1c-6.5,0-10.7,5.4-10.7,11.4c0,6.5,4.7,11.3,10.9,11.3c4.2,0,7.9-2.1,10-5.1V145.4z"/>
		<path class="st1" d="M417.7,165.7c-4,4.8-10.6,7.4-17,7.4c-12.4,0-21.7-8.6-21.7-21.6c0-11.5,7.9-21.6,20.2-21.6
			c11.5,0,19.6,9.7,19.6,21.2c0,1.1-0.1,2.2-0.3,3.2h-28.7c0.6,5.8,5.3,9.8,11.2,9.8c4.7,0,8.5-2.7,10.4-4.8L417.7,165.7z
			 M407.3,146.2c-0.3-3.7-3.7-7.3-8.2-7.3c-4.6,0-8.4,3.5-8.9,7.3H407.3z"/>
	</g>
</g>
</svg>
